<svg width="244" height="208" viewBox="0 0 244 208" fill="none" xmlns="http://www.w3.org/2000/svg">
<path d="M108.965 190L110.135 193.82H113.929L110.858 196.18L112.036 200L108.965 197.639L105.893 200L107.072 196.18L104 193.82H107.794L108.965 190ZM120.804 193.82H117.018L120.081 196.18L118.911 200L121.983 197.639L125.046 200L123.876 196.18L126.947 193.82H123.17L122 190L120.804 193.82ZM133.822 193.82H130.054L133.125 196.18L131.955 200L135.018 197.639L138.09 200L136.937 196.18L140 193.82H136.163L134.992 190L133.822 193.82Z" fill="#1C413A"/>
<path d="M85.2551 22.0576C85.2551 22.0576 89.5591 12.3347 99.2433 13.1966C108.927 14.0586 111.811 8.88683 111.811 8.88683C111.811 8.88683 114.11 23.885 102.669 25.471C93.1057 26.807 89.826 20.3423 85.2551 22.0576ZM82.5779 19.4114C90.3941 16.1963 87.6051 2.36178 83.2149 0C83.4301 2.58589 79.7717 8.15416 72.5064 12.4381C65.2411 16.7221 67.7977 27.9534 67.7977 27.9534C69.9412 24.4539 74.7531 22.6265 82.5779 19.4114ZM62.8825 27.9879C69.4591 22.6868 64.4061 10.0505 58.6645 8.6541C59.5942 11.059 57.6832 17.4461 51.9157 23.6264C46.1482 29.8066 51.8038 39.8744 51.8038 39.8744C52.854 35.8749 56.2887 33.2976 62.8825 27.9879ZM46.3979 39.8744C51.6661 33.2545 44.6763 21.1956 38.6506 21.1956C40.0881 23.3419 39.6061 29.9877 35.3278 37.2799C31.0496 44.5721 38.7711 53.1572 38.7711 53.1572C38.9174 49.0284 41.1297 46.4856 46.3979 39.8744ZM82.8964 41.3914C88.0613 37.5298 97.3495 39.995 97.3495 39.995C97.3495 39.995 96.8158 28.5223 85.7888 26.4881C74.7617 24.4539 68.4347 30.7979 68.4347 30.7979C73.4705 30.1773 79.7889 34.8491 82.8964 41.3828V41.3914ZM69.1664 49.5197C73.2123 44.5203 82.8448 44.6238 82.8448 44.6238C82.8448 44.6238 79.522 33.6338 68.3314 34.3578C57.1409 35.0818 52.5527 42.7705 52.5527 42.7705C57.2786 40.9087 64.5611 43.9687 69.1664 49.5197ZM55.8496 60.3459C58.2341 54.3726 67.4706 51.6229 67.4706 51.6229C67.4706 51.6229 61.0576 42.1413 50.5728 46.115C40.0881 50.0886 38.0136 58.8548 38.0136 58.8548C41.9561 55.6741 49.7981 56.4154 55.8496 60.3459ZM32.7023 57.0188C37.0667 49.7697 29.7067 38.7452 22.5361 39.6071C24.2577 41.5466 24.6365 48.2268 21.3396 55.9844C18.0427 63.7421 26.823 71.3101 26.823 71.3101C26.427 67.2416 28.3466 64.3023 32.7023 57.0532V57.0188ZM22.8546 77.3524C25.5404 69.3276 15.9681 60.1736 9.15046 62.5698C11.2422 64.0869 13.0672 70.4912 11.5435 78.8092C10.0199 87.1271 20.1947 92.5833 20.1947 92.5833C18.9293 88.6528 20.1689 85.4032 22.8546 77.3869V77.3524ZM18.387 99.479C19.4802 91.0835 8.34989 83.9637 2.1176 87.6012C4.4504 88.6872 7.47187 94.6262 7.56656 103.116C7.66125 111.607 18.6883 114.934 18.6883 114.934C16.6912 111.288 17.2852 107.866 18.387 99.479ZM19.1187 123.373C17.595 115.046 4.81195 111.659 0 117.054C2.58244 117.373 7.23944 122.097 9.91657 130.122C12.5937 138.147 24.12 137.974 24.12 137.974C21.1072 135.138 20.6337 131.699 19.1187 123.373ZM26.7197 146.956C23.0268 139.336 9.80467 139.509 6.61105 145.999C9.19349 145.62 14.9437 148.913 19.661 155.92C24.3783 162.928 35.4311 159.661 35.4311 159.661C31.7899 157.748 30.4126 154.558 26.7197 146.956ZM40.2517 167.789C34.7597 161.351 22.0024 164.85 20.539 171.936C22.9149 170.927 29.3366 172.66 35.6808 178.254C42.025 183.848 51.8899 177.9 51.8899 177.9C47.8785 176.961 45.7609 174.228 40.2517 167.789ZM56.4694 184.012C49.0922 179.866 38.3235 187.554 39.3909 194.709C41.2761 192.942 47.8957 192.347 55.7463 195.407C63.597 198.467 70.845 189.476 70.845 189.476C66.782 189.985 63.838 188.158 56.4694 184.012ZM77.7057 194.295C69.6915 191.605 60.5497 201.191 62.9341 208C64.4492 205.914 70.845 204.087 79.1519 205.612C87.4587 207.138 92.8733 196.993 92.8733 196.993C88.9479 198.26 85.7113 196.984 77.7057 194.295ZM44.5988 74.9993C44.7107 68.5691 52.3461 62.7163 52.3461 62.7163C52.3461 62.7163 42.9718 56.0965 34.5961 63.5783C26.2204 71.0601 27.3309 79.9556 27.3309 79.9556C29.9391 75.5079 37.5315 73.4047 44.5988 74.9993ZM38.8227 93.3246C37.8758 86.9633 44.4611 79.9211 44.4611 79.9211C44.4611 79.9211 34.1313 74.9476 27.0984 83.6965C20.0656 92.4454 22.6308 101.022 22.6308 101.022C24.4471 96.2467 31.6005 92.9195 38.8227 93.2901V93.3246ZM36.2919 111.297C32.9864 105.789 36.3694 96.7552 36.3694 96.7552C36.3694 96.7552 24.9206 96.1346 21.7786 106.918C18.6366 117.701 24.2922 124.631 24.2922 124.631C24.1544 119.554 29.4829 113.736 36.2919 111.297ZM39.959 129.398C34.7941 125.519 34.6133 115.874 34.6133 115.874C34.6133 115.874 23.7499 119.554 24.8517 130.734C25.9535 141.913 33.7783 146.249 33.7783 146.249C31.764 141.612 34.5703 134.225 39.959 129.424V129.398ZM49.2041 145.318C43.4969 142.353 41.672 132.88 41.672 132.88C41.672 132.88 31.5747 138.336 34.5359 149.171C37.4971 160.006 45.9331 162.962 45.9331 162.962C43.1785 158.704 44.6849 150.955 49.2041 145.318ZM60.9629 160.178C55.4881 158.454 52.3547 150.43 52.3547 150.43C52.3547 150.43 44.3406 156.808 48.6446 165.867C52.9487 174.927 60.8251 176.211 60.8251 176.211C57.8123 172.892 57.8811 165.85 60.9801 160.178H60.9629ZM74.0903 170.522C68.4778 170.22 63.6056 163.342 63.6056 163.342C63.6056 163.342 57.5368 171.332 63.8036 178.857C70.0703 186.382 77.852 185.753 77.852 185.753C74.1678 183.339 72.5236 176.625 74.1075 170.496L74.0903 170.522ZM89.0598 177.418C83.6797 178.107 77.8692 172.41 77.8692 172.41C77.8692 172.41 73.4877 181.029 80.753 187.158C88.0183 193.286 95.2922 191.243 95.2922 191.243C91.3238 189.64 88.6381 183.538 89.0771 177.435L89.0598 177.418Z" fill="#20AD96"/>
<path d="M141.322 25.4849C129.884 23.8985 132.191 8.89729 132.191 8.89729C132.191 8.89729 135.039 14.0701 144.748 13.208C154.456 12.3458 158.742 22.0708 158.742 22.0708C154.232 20.3379 150.867 26.8039 141.322 25.4849ZM176.197 27.9851C176.197 27.9851 178.779 16.7255 171.48 12.4665C164.182 8.20757 160.584 2.58642 160.791 0C156.401 2.36226 153.621 16.1996 161.436 19.4154C169.251 22.6312 174.071 24.4503 176.214 27.9851H176.197ZM192.179 39.874C192.179 39.874 197.834 29.8042 192.067 23.6226C186.301 17.4411 184.39 11.0526 185.328 8.64727C179.588 10.0439 174.527 22.6829 181.111 27.9851C187.695 33.2872 191.146 35.8737 192.196 39.874H192.179ZM205.227 53.1596C205.227 53.1596 212.973 44.5382 208.67 37.279C204.366 30.0197 203.91 23.3381 205.347 21.1914C199.323 21.1914 192.334 33.2614 197.601 39.874C202.869 46.4866 205.081 49.0299 205.244 53.1596H205.227ZM175.551 30.7439C175.551 30.7439 169.234 24.4158 158.209 26.4332C147.183 28.4506 146.641 39.943 146.641 39.943C146.641 39.943 155.954 37.529 161.118 41.3827C164.216 34.8477 170.533 30.1749 175.568 30.7784L175.551 30.7439ZM191.43 42.7363C191.43 42.7363 186.852 35.046 175.663 34.3218C164.474 33.5976 161.143 44.5899 161.143 44.5899C161.143 44.5899 170.783 44.4864 174.819 49.4869C179.45 43.9692 186.722 40.9086 191.448 42.7708L191.43 42.7363ZM205.993 58.8238C205.993 58.8238 203.884 50.1248 193.41 46.1159C182.936 42.1069 176.524 51.625 176.524 51.625C176.524 51.625 185.759 54.3752 188.143 60.3498C194.202 56.4185 202.051 55.677 206.01 58.8583L205.993 58.8238ZM217.182 71.2818C217.182 71.2818 225.943 63.7984 222.655 56.0391C219.368 48.2799 219.764 41.5983 221.468 39.6585C214.29 38.7963 206.94 49.8231 211.295 57.0737C215.65 64.3243 217.569 67.2469 217.182 71.3163V71.2818ZM223.8 92.5594C223.8 92.5594 233.982 87.1451 232.458 78.8169C230.935 70.4886 232.76 64.0915 234.842 62.5742C228.026 60.1774 218.49 69.3333 221.149 77.3599C223.809 85.3864 225.074 88.6625 223.8 92.5939V92.5594ZM225.315 114.88C225.315 114.88 236.34 111.526 236.435 103.06C236.529 94.594 239.542 88.6625 241.883 87.5417C235.652 83.8776 224.514 90.9903 225.616 99.422C226.718 107.854 227.312 111.302 225.315 114.915V114.88ZM219.884 137.96C219.884 137.96 231.408 138.132 234.085 130.106C236.762 122.079 241.444 117.355 244 117.036C239.189 111.639 226.399 115.027 224.885 123.355C223.37 131.683 222.888 135.158 219.884 137.994V137.96ZM208.558 159.651C208.558 159.651 219.643 162.945 224.334 155.944C229.024 148.943 234.834 145.641 237.39 146.021C234.197 139.529 220.969 139.356 217.276 146.978C213.584 154.599 212.207 157.772 208.558 159.686V159.651ZM192.102 177.929C192.102 177.929 201.974 183.877 208.317 178.282C214.66 172.687 221.072 170.954 223.456 171.963C221.993 164.876 209.238 161.375 203.747 167.816C198.255 174.256 196.13 176.989 192.102 177.929ZM173.167 189.507C173.167 189.507 180.388 198.491 188.263 195.439C196.138 192.387 202.765 192.973 204.616 194.74C205.683 187.585 194.907 179.894 187.54 184.041C180.173 188.188 177.229 190.016 173.167 189.507ZM151.168 196.99C151.168 196.99 156.582 207.172 164.887 205.612C173.193 204.051 179.588 205.914 181.111 208C183.495 201.172 174.355 191.619 166.342 194.292C158.329 196.965 155.093 198.292 151.134 196.99H151.168ZM216.674 79.8859C216.674 79.8859 217.784 71.0059 209.41 63.5053C201.035 56.0046 191.671 62.6431 191.671 62.6431C191.671 62.6431 199.331 68.4971 199.417 74.9286C206.466 73.4113 214.066 75.5149 216.639 79.8859H216.674ZM221.407 101C221.407 101 223.989 92.4301 216.941 83.6707C209.892 74.9114 199.581 79.8945 199.581 79.8945C199.581 79.8945 206.165 86.9382 205.21 93.3008C212.405 92.9301 219.548 96.258 221.364 101H221.407ZM219.746 124.648C219.746 124.648 225.392 117.751 222.251 106.931C219.109 96.1114 207.62 96.7666 207.62 96.7666C207.62 96.7666 211.011 105.802 207.697 111.311C214.479 113.751 219.841 119.57 219.712 124.648H219.746ZM210.279 146.297C210.279 146.297 218.102 141.986 219.196 130.778C220.289 119.57 209.436 115.915 209.436 115.915C209.436 115.915 209.22 125.562 204.099 129.442C209.461 134.244 212.241 141.632 210.227 146.297H210.279ZM198.109 162.988C198.109 162.988 206.552 160.039 209.496 149.193C212.439 138.348 202.369 132.899 202.369 132.899C202.369 132.899 200.536 142.382 194.839 145.34C199.323 150.978 200.82 158.729 198.057 162.988H198.109ZM183.177 176.23C183.177 176.23 191.06 174.954 195.355 165.884C199.65 156.815 191.645 150.443 191.645 150.443C191.645 150.443 188.556 158.487 183.039 160.194C186.129 165.876 186.223 172.919 183.125 176.23H183.177ZM166.196 185.714C166.196 185.714 173.942 186.412 180.242 178.817C186.542 171.221 180.44 163.298 180.44 163.298C180.44 163.298 175.568 170.195 169.957 170.48C171.446 176.653 169.879 183.369 166.144 185.757L166.196 185.714ZM148.767 191.249C148.767 191.249 156.048 193.266 163.312 187.162C170.576 181.058 166.135 172.428 166.135 172.428C166.135 172.428 160.317 178.127 154.947 177.437C155.368 183.567 152.683 189.671 148.715 191.292L148.767 191.249Z" fill="#20AD96"/>
<path d="M121.505 43L123.27 47.9653H129L124.369 51.0347L126.135 56L121.505 52.9306L116.865 56L118.64 51.0347L114 47.9653H119.73L121.505 43Z" fill="#1C413A"/>
</svg>
